# xmcd CD database file
#
# Track frame offsets:
#	150
#	20101
#	43553
#	62342
#	87781
#	113890
#	134789
#	157620
#	184812
#	207715
#	226747
#	247276
#	275669
#	296069
#
# Disc length: 4273 seconds
#
# Revision: 2
# Processed by: cddbd v1.5.1PL2 Copyright (c) Steve Scherf et al.
# Submitted via: CDex 1.51
#
DISCID=d010af0e
DTITLE=Xavier Naidoo - Telegramm für X
DYEAR=2005
DGENRE=
TTITLE0=Und
TTITLE1=Bitte frag`mich nicht
TTITLE2=Dieser Weg
TTITLE3=Zeilen aus Gold
TTITLE4=Oh my Lady
TTITLE5=Seelenheil
TTITLE6=Wo komme ich her
TTITLE7=Bist du am Leben interressiert
TTITLE8=Abgrund
TTITLE9=Bist du aufgewacht
TTITLE10=Sie sind nicht dafür
TTITLE11=In deine Hände
TTITLE12=Du bist wie ein Segen
TTITLE13=Was wir alleine nicht schaffen
EXTD=YEAR: 2005
EXTT0=
EXTT1=
EXTT2=
EXTT3=
EXTT4=
EXTT5=
EXTT6=
EXTT7=
EXTT8=
EXTT9=
EXTT10=
EXTT11=
EXTT12=
EXTT13=
PLAYORDER=
